Coordinates
version=1
nRows=14
nColumns=24
inDegrees=yes

Units are S.I. units (second, meters, Newtons, ...)
Angles are in degrees.

endheader
time	pelvis_tilt	pelvis_list	pelvis_rotation	pelvis_tx	pelvis_ty	pelvis_tz	hip_flexion_r	hip_adduction_r	hip_rotation_r	knee_angle_r	ankle_angle_r	subtalar_angle_r	mtp_angle_r	hip_flexion_l	hip_adduction_l	hip_rotation_l	knee_angle_l	ankle_angle_l	subtalar_angle_l	mtp_angle_l	lumbar_extension	lumbar_bending	lumbar_rotation
      1.58416667	     -1.81248338	      8.92883827	     -1.61394897	      0.47190050	      0.98596474	      0.29752035	     15.22437609	    -10.50486996	      1.42140503	    -68.39460940	      2.02936369	     -7.47692145	      0.66072728	     13.36310836	     14.58838136	     -0.64879000	    -14.98332364	      2.36482962	    -14.13610132	      1.66262301	      4.58901959	     -7.09926674	      5.90998593
      1.58833333	     -1.71637727	      8.86761891	     -1.49780467	      0.47662816	      0.98673330	      0.29722766	     15.78489565	    -10.39396220	      1.46363780	    -68.33101979	      2.55252515	     -7.85396925	      0.53861882	     12.74656221	     14.58930311	     -0.38954699	    -14.64148156	      2.39641482	    -14.19824499	      1.64056320	      4.43140760	     -7.05561226	      5.65900853
      1.59250000	     -1.66418325	      8.80550345	     -1.36599845	      0.48131600	      0.98738270	      0.29692375	     16.39002761	    -10.28605228	      1.49575831	    -68.24081702	      3.16654667	     -8.05856202	      0.49533473	     12.20945499	     14.57826591	     -0.17491915	    -14.36320112	      2.48620638	    -14.13428418	      1.63462477	      4.32017489	     -7.00178869	      5.56138136
      1.59666667	     -1.58132936	      8.74512337	     -1.23974052	      0.48600838	      0.98806082	      0.29663903	     16.94554254	    -10.17593202	      1.53845614	    -68.09144981	      3.75413768	     -8.27998485	      0.44454544	     11.63056372	     14.56651878	      0.04471744	    -14.06461651	      2.56283180	    -14.09721936	      1.62708987	      4.17226683	     -6.95264473	      5.41322038
      1.60083333	     -1.50769081	      8.67398904	     -1.10978263	      0.49067908	      0.98869631	      0.29635982	     17.50259589	    -10.05277550	      1.57640322	    -67.90124898	      4.31447175	     -8.46638768	      0.39081646	     11.06762745	     14.54081959	      0.27220319	    -13.77722421	      2.63530596	    -14.07505908	      1.61890696	      4.03352702	     -6.89165448	      5.24763342
      1.60500000	     -1.41466764	      8.62283679	     -0.97905658	      0.49536914	      0.98933046	      0.29606345	     18.02566880	     -9.96015515	      1.61079677	    -67.66250034	      4.82369755	     -8.61682253	      0.25256944	     10.46266345	     14.54055208	      0.54366311	    -13.44449056	      2.66945223	    -14.13979868	      1.59457870	      3.88115475	     -6.85662098	      4.96120294
      1.60916667	     -1.38023205	      8.55041031	     -0.83199674	      0.49999559	      0.98982381	      0.29578505	     18.60660593	     -9.83453151	      1.64628668	    -67.39306618	      5.37567126	     -8.69655988	      0.20796188	      9.96790124	     14.50477604	      0.76203362	    -13.20585232	      2.76858826	    -14.07251748	      1.58874740	      3.78472879	     -6.79435798	      4.86896384
      1.61333333	     -1.31458917	      8.49117125	     -0.69083126	      0.50464574	      0.99035217	      0.29551033	     19.13762577	     -9.72892334	      1.68156681	    -67.07136502	      5.91070192	     -8.75957645	      0.15925760	      9.42764460	     14.48178093	      0.98328495	    -12.94137555	      2.85331753	    -14.03388753	      1.58134822	      3.66208815	     -6.74974063	      4.71630766
      1.61750000	     -1.23632374	      8.43811749	     -0.54773856	      0.50928312	      0.99085539	      0.29521681	     19.64440202	     -9.63435509	      1.72052685	    -66.70950597	      6.38676573	     -8.76480895	      0.04263183	      8.86050803	     14.46909239	      1.25174713	    -12.64680311	      2.91450465	    -14.08498740	      1.56039706	      3.51193596	     -6.71561081	      4.42436863
      1.62166667	     -1.18236559	      8.35475253	     -0.38708921	      0.51389242	      0.99131793	      0.29494458	     20.15505184	     -9.50150211	      1.74180129	    -66.29125505	      6.86787812	     -8.77437448	     -0.00517576	      8.35260781	     14.41433456	      1.48692244	    -12.42249248	      3.00623899	    -14.02652216	      1.55318524	      3.39223938	     -6.64040608	      4.31677882
      1.62583333	     -1.09606027	      8.31006070	     -0.24245658	      0.51852560	      0.99177026	      0.29465876	     20.62791044	     -9.42224900	      1.77203949	    -65.84499192	      7.31193166	     -8.71003683	     -0.12014917	      7.78481018	     14.40421120	      1.74881312	    -12.14135554	      3.07630170	    -14.06410278	      1.53069332	      3.24167808	     -6.60877013	      4.04264831
      1.63000000	     -1.04059896	      8.24584187	     -0.08336747	      0.52312410	      0.99216504	      0.29438078	     21.11697028	     -9.31719247	      1.79659375	    -65.35239441	      7.73838777	     -8.66537883	     -0.22740533	      7.27221854	     14.36718546	      2.00459769	    -11.90329388	      3.16300152	    -14.06452415	      1.50955633	      3.12174088	     -6.55668695	      3.85140384
      1.63416667	     -0.98817314	      8.19072960	      0.08081746	      0.52771949	      0.99252029	      0.29409985	     21.59538998	     -9.22697075	      1.81744362	    -64.82084991	      8.14034298	     -8.59626279	     -0.33592857	      6.76691168	     14.33746950	      2.26085614	    -11.67190460	      3.24447902	    -14.07106773	      1.48649714	      3.00869689	     -6.52024377	      3.65401681
      1.63833333	     -0.95339769	      8.10467134	      0.25455109	      0.53228059	      0.99283869	      0.29383752	     22.07367693	     -9.09732207	      1.83026259	    -64.23887579	      8.50810439	     -8.57084186	     -0.37514014	      6.30431122	     14.26746527	      2.49505270	    -11.48763438	      3.36326009	    -14.01682783	      1.48003192	      2.90744886	     -6.43720897	      3.54551333
